<?xml version="1.0" encoding="utf-8"?>
<!-- Generator: Adobe Illustrator 24.2.3, SVG Export Plug-In . SVG Version: 6.00 Build 0)  -->
<svg version="1.1" xmlns="http://www.w3.org/2000/svg" xmlns:xlink="http://www.w3.org/1999/xlink" x="0px" y="0px"
	 viewBox="0 0 34.15 34.32" style="enable-background:new 0 0 34.15 34.32;" xml:space="preserve">
<style type="text/css">
	.st0{fill:#9D9D9C;}
	.st1{fill:#009FE3;}
	.st2{fill:#FFED00;}
	.st3{fill:none;stroke:#9D9D9C;stroke-width:1.32;}
	.st4{fill:none;}
	.st5{clip-path:url(#SVGID_2_);fill:#055F2C;}
	.st6{fill:#055F2C;}
	.st7{clip-path:url(#SVGID_4_);fill:#055F2C;}
	.st8{clip-path:url(#SVGID_6_);fill:#055F2C;}
</style>
<g id="Layer_1">
	<path d="M1.72,21.19c0.46,0,0.85-0.15,1.15-0.46c0.31-0.31,0.46-0.69,0.46-1.15c0-4.02,1.42-7.45,4.26-10.29
		c2.84-2.84,6.27-4.26,10.29-4.26c3.58,0,6.63,1.27,9.16,3.8c2.52,2.53,3.78,5.58,3.78,9.14c0,3.12-1.11,5.79-3.32,8.01
		c-2.21,2.21-4.88,3.32-8.01,3.32c-2.66,0-4.94-0.95-6.83-2.84c-1.89-1.89-2.84-4.19-2.84-6.87c0-2.23,0.79-4.13,2.36-5.7
		c1.57-1.57,3.48-2.36,5.7-2.36c1.79,0,3.32,0.63,4.59,1.88c1.27,1.26,1.9,2.78,1.9,4.57c0,1.33-0.47,2.47-1.42,3.42
		c-0.95,0.95-2.1,1.42-3.46,1.42c-0.9,0-1.66-0.31-2.28-0.94c-0.63-0.63-0.94-1.39-0.94-2.28c0-0.44-0.16-0.81-0.48-1.13
		c-0.32-0.32-0.7-0.48-1.13-0.48c-0.44,0-0.81,0.16-1.13,0.48c-0.32,0.32-0.48,0.7-0.48,1.13c0,1.79,0.63,3.32,1.88,4.59
		c1.25,1.27,2.78,1.9,4.57,1.9c2.23,0,4.13-0.79,5.72-2.38c1.59-1.59,2.38-3.49,2.38-5.72c0-2.69-0.95-4.98-2.84-6.87
		c-1.89-1.89-4.19-2.84-6.87-2.84c-3.12,0-5.79,1.11-8,3.32c-2.22,2.21-3.32,4.88-3.32,8c0,3.58,1.27,6.64,3.8,9.16
		c2.53,2.52,5.58,3.78,9.14,3.78c4.02,0,7.45-1.42,10.29-4.26c2.84-2.84,4.26-6.27,4.26-10.29c0-4.45-1.57-8.26-4.72-11.42
		C26.18,3.38,22.36,1.8,17.88,1.8C12.97,1.8,8.78,3.54,5.31,7c-3.47,3.47-5.2,7.66-5.2,12.57c0,0.46,0.16,0.84,0.48,1.15
		C0.91,21.04,1.28,21.19,1.72,21.19z"/>
</g>
<g id="Layer_2">
</g>
</svg>
