<?xml version="1.0" encoding="utf-8"?>
<!-- Generator: Adobe Illustrator 24.2.3, SVG Export Plug-In . SVG Version: 6.00 Build 0)  -->
<svg version="1.1" xmlns="http://www.w3.org/2000/svg" xmlns:xlink="http://www.w3.org/1999/xlink" x="0px" y="0px"
	 viewBox="0 0 164.94 55.69" style="enable-background:new 0 0 164.94 55.69;" xml:space="preserve">
<style type="text/css">
	.st0{fill:#9D9D9C;}
	.st1{fill:#009FE3;}
	.st2{fill:#FFED00;}
	.st3{fill:none;stroke:#9D9D9C;stroke-width:1.32;}
	.st4{fill:none;}
</style>
<g id="Layer_1">
	<path d="M156.85,55.68c0.51,0,0.92-0.41,0.92-0.92V22.28c0-0.51-0.41-0.92-0.92-0.92s-0.92,0.41-0.92,0.92v32.48
		C155.93,55.27,156.34,55.68,156.85,55.68z"/>
	<path d="M164.94,18.07c0-0.51-0.41-0.92-0.92-0.92h-6.19V1c0-0.51-0.41-0.92-0.92-0.92S156.01,0.5,156.01,1v17.98h8.02
		C164.53,18.98,164.94,18.57,164.94,18.07z"/>
	<path d="M149.42,0.09c-0.51,0-0.92,0.41-0.92,0.92v27.49v17.75v8.53c0,0.51,0.41,0.92,0.92,0.92s0.92-0.41,0.92-0.92v-8.53V28.49V1
		C150.33,0.5,149.92,0.09,149.42,0.09z"/>
	<path d="M153.17,0.09c-0.51,0-0.92,0.41-0.92,0.92v27.31c-0.01,0.06-0.04,0.11-0.04,0.17v26.28c0,0.51,0.41,0.92,0.92,0.92
		s0.92-0.41,0.92-0.92v-8.36c0.01-0.06,0.04-0.11,0.04-0.17V1C154.09,0.5,153.68,0.09,153.17,0.09z"/>
	<path d="M93.57,19.66c-2.57-0.04-5,0.38-7.25,1.26c-1.82,0.71-3.55,1.7-5.14,2.94c-0.01,0.01-0.02,0.01-0.02,0.01
		c-2.58,2.3-4.56,5.24-5.74,8.52c0,0.01-0.01,0.01-0.01,0.01c0,0.01,0,0.02-0.01,0.02c-0.01,0.02-0.01,0.03-0.02,0.05
		c0,0.01,0,0.03-0.01,0.04c-1.88,5.99-0.41,12.82,3.77,17.43c3.32,3.66,8.18,5.73,13.04,5.73c1.18,0,2.37-0.12,3.53-0.38
		c5.82-1.27,10.74-5.71,12.53-11.33c1.75-5.5,0.39-11.78-3.46-16c-3.77-4.13-9.69-6.03-15.09-4.83c-5.28,1.17-9.73,5.22-11.33,10.32
		c-1.57,4.98-0.32,10.66,3.17,14.46c3.41,3.71,8.75,5.4,13.61,4.3c4.74-1.07,8.71-4.72,10.13-9.3c1.38-4.46,0.25-9.53-2.89-12.91
		c-3.05-3.29-7.82-4.77-12.13-3.77c-4.19,0.97-7.7,4.22-8.94,8.28c-1.2,3.94-0.17,8.4,2.61,11.37c2.7,2.87,6.88,4.14,10.66,3.24
		c3.65-0.87,6.69-3.72,7.74-7.27c1.01-3.42,0.1-7.28-2.33-9.82c-2.34-2.45-5.95-3.51-9.18-2.71c-3.11,0.77-5.68,3.23-6.54,6.25
		c-0.83,2.91-0.02,6.16,2.06,8.27c1.99,2.03,5.01,2.88,7.7,2.18c2.57-0.67,4.67-2.73,5.33-5.24c0.64-2.39-0.06-5.03-1.79-6.73
		c-1.64-1.61-4.08-2.25-6.23-1.64c-2.03,0.58-3.65,2.25-4.13,4.24c-0.45,1.88,0.15,3.91,1.53,5.18c1.29,1.19,3.15,1.61,4.76,1.08
		c1.49-0.49,2.63-1.77,2.91-3.26c0.25-1.37-0.26-2.8-1.3-3.63c-0.95-0.76-2.25-0.95-3.32-0.48c-0.95,0.42-1.61,1.36-1.64,2.34
		c-0.03,0.9,0.46,1.73,1.23,2.07c0.72,0.32,1.58,0.12,2-0.46c0.24-0.33,0.32-0.76,0.2-1.15c-0.11-0.36-0.38-0.65-0.73-0.77
		c-0.27-0.1-0.56-0.05-0.79,0.09c0.08-0.16,0.23-0.34,0.47-0.45c0.35-0.16,0.95-0.15,1.43,0.24c0.41,0.33,0.79,1.06,0.64,1.87
		c-0.15,0.83-0.83,1.57-1.68,1.85c-0.97,0.32-2.15,0.04-2.94-0.69c-0.88-0.81-1.28-2.18-0.99-3.41c0.32-1.34,1.47-2.51,2.85-2.91
		c1.5-0.43,3.29,0.04,4.44,1.18c1.24,1.22,1.77,3.21,1.3,4.95c-0.5,1.86-2.11,3.44-4.03,3.94c-2.04,0.53-4.42-0.14-5.93-1.69
		c-1.6-1.63-2.24-4.24-1.6-6.49c0.67-2.37,2.77-4.37,5.22-4.98c2.57-0.64,5.55,0.25,7.41,2.2c1.95,2.04,2.72,5.27,1.9,8.04
		c-0.85,2.88-3.42,5.3-6.4,6c-3.14,0.75-6.64-0.32-8.9-2.72c-2.34-2.49-3.2-6.25-2.19-9.58c1.05-3.45,4.03-6.21,7.6-7.03
		c3.69-0.85,7.76,0.42,10.38,3.24c2.7,2.91,3.68,7.28,2.48,11.12c-1.23,3.97-4.68,7.13-8.79,8.05c-4.23,0.95-8.89-0.52-11.86-3.76
		c-3.06-3.33-4.15-8.3-2.78-12.67c1.41-4.49,5.33-8.05,9.98-9.08c4.78-1.05,10.01,0.62,13.34,4.28c3.42,3.75,4.62,9.32,3.07,14.21
		c-1.59,5.01-5.98,8.97-11.17,10.1c-5.32,1.16-11.13-0.73-14.83-4.8c-3.77-4.15-5.09-10.32-3.37-15.71
		c1.07-2.96,2.85-5.62,5.18-7.71c1.45-1.13,3.03-2.03,4.68-2.68c2.02-0.79,4.21-1.17,6.55-1.13c1.47,0.02,14.43,0.71,17.76,17.26
		c0.09,0.44,0.47,0.74,0.9,0.74c0.06,0,0.12-0.01,0.18-0.02c0.5-0.1,0.82-0.58,0.72-1.08C109.48,20.44,95.18,19.69,93.57,19.66z"/>
	<path d="M5.7,53.58c2.02,1.29,4.41,1.94,6.8,1.94c2.05,0,4.12-0.48,5.96-1.44c2.19-1.15,4-2.94,5.24-5.08v5.6
		c0,0.51,0.41,0.92,0.92,0.92s0.92-0.41,0.92-0.92V42.81c0,0,0-5.06,0-5.08c0-7.21-5.87-13.08-13.08-13.08
		c-0.99,0-1.98,0.11-2.94,0.33c-0.49,0.11-0.8,0.6-0.69,1.1c0.11,0.49,0.6,0.8,1.1,0.69c0.83-0.19,1.68-0.29,2.53-0.29
		c6.2,0,11.25,5.05,11.25,11.25c0,0.02,0,5.02,0,5.02c-0.17,4.04-2.56,7.85-6.09,9.69c-3.43,1.79-7.72,1.63-10.93-0.42
		c-3.11-1.98-5.01-5.6-4.84-9.22c0.16-3.49,2.24-6.77,5.3-8.35c2.9-1.49,6.66-1.33,9.35,0.41c2.59,1.67,4.22,4.82,4.06,7.85
		c-0.15,2.9-1.96,5.7-4.5,6.98c-2.43,1.23-5.55,1.06-7.77-0.4c-2.12-1.4-3.43-4-3.28-6.47c0.15-2.35,1.64-4.61,3.7-5.62
		c1.95-0.96,4.44-0.8,6.19,0.39c1.65,1.12,2.65,3.17,2.5,5.1c-0.14,1.81-1.31,3.52-2.9,4.26c-1.48,0.69-3.33,0.54-4.61-0.37
		c-1.18-0.84-1.87-2.33-1.73-3.72c0.13-1.26,0.97-2.43,2.08-2.9c1-0.43,2.21-0.29,3.03,0.34c0.71,0.55,1.11,1.49,0.97,2.32
		c-0.13,0.82-0.73,1.38-1.24,1.56c-0.58,0.2-1.16,0.01-1.44-0.26c-0.18-0.18-0.28-0.4-0.3-0.6c0.38,0.49,1.26,0.43,1.67-0.12
		c0.24-0.32,0.32-0.75,0.2-1.15c-0.2-0.7-0.96-1.18-1.74-1.11c-0.83,0.07-1.58,0.69-1.85,1.55c-0.3,0.94,0.01,2.05,0.77,2.77
		c0.85,0.8,2.14,1.06,3.3,0.66c1.27-0.44,2.23-1.62,2.44-3c0.24-1.5-0.41-3.09-1.66-4.06c-1.34-1.04-3.26-1.27-4.87-0.57
		c-1.73,0.74-2.98,2.46-3.18,4.39c-0.22,2.05,0.76,4.17,2.49,5.4c1.83,1.3,4.36,1.52,6.45,0.54c2.2-1.03,3.75-3.29,3.95-5.77
		c0.21-2.6-1.09-5.26-3.29-6.76c-2.31-1.57-5.46-1.78-8.03-0.52c-2.68,1.31-4.53,4.12-4.72,7.15c-0.2,3.16,1.41,6.35,4.1,8.12
		c2.8,1.84,6.56,2.04,9.61,0.51c3.15-1.59,5.31-4.94,5.5-8.52c0.2-3.71-1.73-7.43-4.89-9.48c-3.28-2.12-7.66-2.31-11.18-0.5
		c-3.63,1.87-6.1,5.76-6.29,9.89C-0.18,47,2.05,51.26,5.7,53.58z"/>
	<path d="M12.45,20.94c-1.63,0-3.25,0.23-4.8,0.7c-0.49,0.14-0.76,0.65-0.62,1.14c0.14,0.48,0.65,0.76,1.14,0.62
		c1.39-0.41,2.83-0.62,4.28-0.62c8.25,0,14.96,6.71,14.96,14.96c0,0.02,0,16.86,0,16.86c0,0.51,0.41,0.92,0.92,0.92
		s0.92-0.41,0.92-0.92c0,0,0-16.84,0-16.86C29.24,28.47,21.71,20.94,12.45,20.94z"/>
	<path d="M12.45,17.23c-2.39,0-4.74,0.41-6.97,1.21c-0.48,0.17-0.72,0.7-0.55,1.17s0.69,0.72,1.17,0.55c2.03-0.73,4.16-1.1,6.34-1.1
		c10.29,0,18.67,8.38,18.67,18.67c0,0.02,0,16.86,0,16.86c0,0.51,0.41,0.92,0.92,0.92s0.92-0.41,0.92-0.92c0,0,0-16.84,0-16.86
		C32.96,26.43,23.76,17.23,12.45,17.23z"/>
	<path d="M125.86,47.33c0.32,0.23,0.67,0.43,1.04,0.61c0.93,0.43,1.96,0.66,3.01,0.66c0.09,0,0.19,0,0.28-0.01
		c0.11,0,0.22,0.01,0.32,0.01c1.47,0,2.9-0.44,4.06-1.27c1.77-1.26,2.83-3.36,2.77-5.49l0-21.12c0-0.51-0.42-0.93-0.93-0.93
		s-0.93,0.42-0.93,0.93c0,0-0.03,20.75-0.02,20.86c0.17,1.58-0.62,3.28-1.97,4.24c-0.74,0.53-1.64,0.83-2.59,0.9V46.7l-0.69,0.03
		l-0.68-0.03v0.01c-0.94-0.07-1.85-0.37-2.59-0.9c-1.34-0.96-2.13-2.66-1.97-4.24c0.01-0.11-0.02-20.85-0.02-20.85
		c0-0.51-0.42-0.93-0.93-0.93s-0.93,0.42-0.93,0.93v21.05l0,0.06C123.02,43.96,124.08,46.07,125.86,47.33z"/>
	<path d="M119.57,41.83c-0.07,3.4,1.67,6.68,4.55,8.58c0.41,0.27,0.84,0.51,1.28,0.71c1.39,0.65,2.95,0.99,4.52,0.99
		c0.1,0,0.2,0,0.3,0c0.1,0,0.2,0,0.3,0c0.1,0,0.2-0.02,0.3-0.02l0.09,0v0c1.95-0.07,3.84-0.64,5.41-1.67
		c2.89-1.91,4.63-5.21,4.55-8.54l0-21.22c0-0.51-0.42-0.93-0.93-0.93S139,20.14,139,20.65v20.66c-0.01,0.07-0.02,0.15-0.01,0.23
		c0.18,2.84-1.27,5.71-3.7,7.31c-1.42,0.94-3.18,1.42-4.97,1.39l-0.1,0l-0.13,0c-1.77,0.04-3.52-0.45-4.94-1.38
		c-2.43-1.6-3.88-4.47-3.7-7.3c0.01-0.08,0-0.17-0.01-0.25V20.65c0-0.51-0.42-0.93-0.93-0.93s-0.93,0.42-0.93,0.93l0,21.12
		L119.57,41.83z"/>
	<path d="M143.46,19.79c-0.51,0-0.93,0.42-0.93,0.93v20.61l-0.02,0.06l0.01,0.13c0.18,4.08-1.96,8.15-5.45,10.38
		c-1.79,1.14-3.94,1.78-6.16,1.85v-0.01l-1.37,0v0.01c-2.23-0.06-4.37-0.71-6.16-1.85c-3.5-2.23-5.64-6.3-5.45-10.39l-0.01-20.79
		c0-0.51-0.42-0.93-0.93-0.93c-0.51,0-0.93,0.42-0.93,0.93l0,21.07c-0.08,4.6,2.4,9.19,6.32,11.69c0.49,0.31,1,0.59,1.53,0.84
		c1.74,0.81,3.67,1.24,5.63,1.3v0c0,0,0.59,0.02,0.69,0.01c0.1,0,0.2,0,0.3,0c2.73,0,5.33-0.74,7.54-2.15
		c3.92-2.5,6.4-7.08,6.33-11.7V20.72C144.39,20.2,143.97,19.79,143.46,19.79z"/>
	<path d="M43.7,20.88c0.51,0,0.92-0.41,0.92-0.92V0.92C44.61,0.41,44.2,0,43.7,0s-0.92,0.41-0.92,0.92v19.05
		C42.78,20.47,43.19,20.88,43.7,20.88z"/>
	<path d="M39.94,20.88c0.51,0,0.92-0.41,0.92-0.92V0.92c0-0.51-0.41-0.92-0.92-0.92s-0.92,0.41-0.92,0.92v19.05
		C39.03,20.47,39.44,20.88,39.94,20.88z"/>
	<path d="M68.38,25.39c-4.12-4.55-10.63-6.65-16.57-5.36c-5.82,1.27-10.74,5.71-12.53,11.33c-1.75,5.5-0.4,11.78,3.46,16
		c3.02,3.31,7.42,5.18,11.84,5.18c1.09,0,2.19-0.11,3.26-0.35c5.28-1.17,9.73-5.22,11.33-10.32c1.57-4.98,0.32-10.65-3.17-14.46
		c-3.41-3.71-8.75-5.4-13.61-4.3c-4.74,1.07-8.71,4.72-10.13,9.3c-1.38,4.46-0.25,9.53,2.89,12.91c3.05,3.29,7.82,4.77,12.13,3.77
		c4.19-0.97,7.7-4.22,8.94-8.28c1.2-3.94,0.17-8.4-2.61-11.37c-2.7-2.87-6.88-4.14-10.66-3.24c-3.65,0.87-6.69,3.72-7.74,7.27
		c-1.01,3.42-0.1,7.28,2.33,9.82c2.34,2.45,5.94,3.52,9.18,2.71c3.11-0.77,5.68-3.23,6.54-6.25c0.83-2.91,0.02-6.16-2.06-8.27
		c-1.99-2.03-5.01-2.88-7.7-2.18c-2.57,0.67-4.66,2.73-5.33,5.25c-0.64,2.39,0.06,5.03,1.79,6.73c1.63,1.61,4.08,2.25,6.23,1.64
		c2.03-0.58,3.65-2.25,4.13-4.24c0.45-1.88-0.15-3.91-1.53-5.18c-1.29-1.19-3.16-1.61-4.76-1.08c-1.49,0.49-2.63,1.77-2.91,3.26
		c-0.25,1.37,0.26,2.8,1.3,3.63c0.95,0.76,2.25,0.96,3.32,0.48c0.95-0.42,1.61-1.36,1.64-2.34c0.03-0.9-0.46-1.73-1.23-2.07
		c-0.72-0.32-1.59-0.12-2.01,0.47c-0.24,0.33-0.31,0.76-0.19,1.15c0.11,0.36,0.38,0.64,0.73,0.77c0.27,0.1,0.56,0.06,0.79-0.09
		c-0.09,0.17-0.25,0.35-0.47,0.44c-0.35,0.16-0.95,0.15-1.43-0.24c-0.41-0.33-0.79-1.06-0.64-1.87c0.15-0.83,0.83-1.57,1.68-1.85
		c0.97-0.32,2.15-0.04,2.95,0.69c0.88,0.81,1.28,2.18,0.99,3.41c-0.32,1.34-1.47,2.51-2.85,2.91c-1.5,0.43-3.29-0.05-4.44-1.18
		c-1.24-1.22-1.77-3.21-1.3-4.95c0.5-1.86,2.12-3.44,4.03-3.95c2.04-0.54,4.42,0.14,5.93,1.69c1.6,1.63,2.24,4.24,1.6,6.49
		c-0.67,2.37-2.77,4.37-5.22,4.98c-2.57,0.64-5.54-0.25-7.41-2.2c-1.95-2.04-2.72-5.27-1.9-8.03c0.85-2.88,3.43-5.3,6.41-6.01
		c3.1-0.74,6.68,0.35,8.9,2.72c2.34,2.49,3.2,6.25,2.19,9.58c-1.05,3.45-4.03,6.21-7.6,7.03c-3.69,0.85-7.76-0.42-10.38-3.24
		c-2.7-2.91-3.68-7.28-2.49-11.12c1.23-3.97,4.68-7.13,8.79-8.05c4.24-0.95,8.89,0.52,11.86,3.76c3.06,3.33,4.15,8.3,2.77,12.67
		c-1.41,4.49-5.33,8.05-9.98,9.08c-4.78,1.05-10.01-0.62-13.35-4.28c-3.42-3.75-4.62-9.32-3.06-14.21
		c1.59-5.01,5.98-8.97,11.17-10.1c5.31-1.16,11.13,0.73,14.83,4.8c3.77,4.15,5.09,10.32,3.37,15.71c-1.06,2.96-2.85,5.63-5.18,7.71
		c-1.46,1.13-3.03,2.03-4.67,2.67c-6.36,2.49-12.59,0.09-12.86-0.01c-4.54-1.79-10.57-5.77-10.57-19.68V19.97V1V0.92
		C37.11,0.41,36.7,0,36.19,0s-0.92,0.41-0.92,0.92V1v18.96v13.06C35.28,44.46,39,51.25,47,54.41c0.47,0.19,3.41,1.28,7.31,1.28
		c2.1,0,4.47-0.32,6.89-1.26c1.82-0.71,3.55-1.7,5.15-2.95c0.01,0,0.01-0.01,0.02-0.01c2.58-2.3,4.56-5.24,5.74-8.52
		c0-0.01,0.01-0.01,0.01-0.01c0-0.01,0-0.02,0.01-0.02c0.01-0.02,0.01-0.03,0.02-0.05c0-0.01,0-0.03,0.01-0.04
		C74.03,36.82,72.56,30,68.38,25.39z"/>
</g>
<g id="Layer_2">
</g>
</svg>
