<?xml version="1.0" encoding="utf-8"?>
<!-- Generator: Adobe Illustrator 24.2.3, SVG Export Plug-In . SVG Version: 6.00 Build 0)  -->
<svg version="1.1" xmlns="http://www.w3.org/2000/svg" xmlns:xlink="http://www.w3.org/1999/xlink" x="0px" y="0px"
	 viewBox="0 0 316.15 55.86" style="enable-background:new 0 0 316.15 55.86;" xml:space="preserve">
<style type="text/css">
	.st0{fill:#9D9D9C;}
	.st1{fill:#009FE3;}
	.st2{fill:#FFED00;}
	.st3{fill:none;stroke:#9D9D9C;stroke-width:1.32;}
	.st4{fill:none;}
</style>
<g id="Layer_1">
	<path d="M26.79,20.24c-5.17-3.2-12.01-3.39-17.41-0.48c-5.48,2.95-9.15,8.9-9.38,15.17c0,0.01-0.01,0.02-0.01,0.04
		c0,0.02,0,0.03,0,0.05c0,0.01,0,0.02,0,0.04c0,0.01,0.01,0.02,0.01,0.03C0.07,46.53,9.4,55.83,20.86,55.83c4.45,0,8.7-1.38,12.28-4
		c0.41-0.3,0.5-0.87,0.2-1.28c-0.3-0.41-0.87-0.5-1.28-0.2c-3.27,2.39-7.14,3.65-11.2,3.65c-10.46,0-18.98-8.49-19.02-18.95
		c0.18-5.65,3.48-11.02,8.42-13.67c4.84-2.61,10.95-2.44,15.58,0.43c4.52,2.8,7.33,8,7.16,13.25c-0.16,5.13-3.16,9.98-7.63,12.37
		C21,49.75,15.5,49.59,11.35,47c-4.04-2.52-6.54-7.19-6.38-11.89c0.16-4.58,2.85-8.9,6.85-11.01c3.88-2.06,8.77-1.89,12.44,0.42
		c3.56,2.24,5.76,6.37,5.59,10.52c-0.16,4.02-2.54,7.81-6.06,9.66c-3.41,1.78-7.67,1.62-10.87-0.41c-3.09-1.97-4.98-5.56-4.81-9.16
		c0.16-3.47,2.22-6.73,5.27-8.3c2.93-1.51,6.57-1.35,9.29,0.41c2.57,1.66,4.19,4.8,4.03,7.8c-0.15,2.88-1.95,5.67-4.47,6.94
		c-2.41,1.22-5.52,1.06-7.72-0.4c-2.1-1.39-3.41-3.97-3.26-6.43c0.15-2.34,1.63-4.58,3.68-5.58c1.94-0.95,4.41-0.79,6.15,0.39
		c1.64,1.11,2.63,3.15,2.48,5.06c-0.14,1.79-1.3,3.49-2.88,4.23c-1.47,0.69-3.31,0.54-4.58-0.37c-1.17-0.83-1.86-2.32-1.72-3.69
		c0.13-1.25,0.96-2.41,2.07-2.88c0.99-0.42,2.2-0.29,3.01,0.34c0.71,0.55,1.1,1.47,0.96,2.31c-0.13,0.81-0.73,1.37-1.23,1.55
		c-0.58,0.2-1.15,0.01-1.43-0.25c-0.18-0.17-0.27-0.38-0.3-0.58c0.38,0.47,1.25,0.4,1.66-0.14c0.24-0.32,0.32-0.75,0.2-1.15
		c-0.21-0.69-0.93-1.17-1.74-1.11c-0.83,0.07-1.57,0.69-1.85,1.54c-0.3,0.93,0.01,2.04,0.77,2.76c0.84,0.8,2.13,1.05,3.29,0.65
		c1.26-0.44,2.22-1.61,2.44-2.99c0.24-1.5-0.41-3.08-1.65-4.04c-1.34-1.04-3.24-1.26-4.85-0.57c-1.72,0.74-2.96,2.45-3.17,4.37
		c-0.22,2.04,0.76,4.15,2.48,5.38c1.82,1.3,4.34,1.51,6.42,0.54c2.19-1.02,3.73-3.28,3.93-5.75c0.21-2.59-1.08-5.23-3.28-6.73
		c-2.3-1.56-5.44-1.77-7.99-0.52c-2.66,1.3-4.51,4.1-4.7,7.11c-0.2,3.14,1.4,6.31,4.08,8.08c2.78,1.84,6.53,2.03,9.56,0.51
		c3.14-1.58,5.29-4.91,5.48-8.48c0.19-3.69-1.72-7.4-4.87-9.43c-3.26-2.11-7.63-2.3-11.13-0.5c-3.61,1.86-6.07,5.73-6.26,9.84
		c-0.19,4.24,2.03,8.48,5.66,10.79c3.74,2.38,8.72,2.57,12.7,0.49c4.09-2.14,6.85-6.54,7.04-11.21c0.19-4.79-2.34-9.56-6.45-12.15
		c-4.22-2.65-9.82-2.85-14.27-0.49c-4.56,2.42-7.63,7.35-7.82,12.57c-0.19,5.35,2.65,10.65,7.24,13.51
		c2.49,1.55,5.41,2.33,8.33,2.33c2.59,0,5.19-0.61,7.51-1.85c5.04-2.69,8.42-8.16,8.6-13.93C35.01,29.21,31.86,23.38,26.79,20.24z"
		/>
	<path d="M121.92,1.45c-2.25-1.53-5.33-1.73-7.83-0.51c-2.61,1.28-4.42,4.01-4.61,6.97c-0.01,0.12-0.01,0.24-0.01,0.36
		c-0.01,0.5,0.39,0.9,0.88,0.91c0.01,0,0.01,0,0.02,0c0.49,0,0.89-0.39,0.9-0.88c0-0.09,0-0.19,0.01-0.28
		c0.15-2.29,1.59-4.49,3.6-5.47c1.9-0.93,4.32-0.78,6.03,0.38c1.6,1.09,2.58,3.08,2.43,4.96c-0.14,1.76-1.27,3.42-2.82,4.15
		c-1.44,0.67-3.24,0.53-4.49-0.36c-1.15-0.82-1.82-2.27-1.68-3.62c0.13-1.23,0.94-2.36,2.03-2.83c0.97-0.41,2.16-0.28,2.95,0.33
		c0.69,0.54,1.07,1.45,0.95,2.26c-0.13,0.8-0.71,1.34-1.21,1.51c-0.57,0.2-1.12,0.01-1.4-0.25c-0.17-0.16-0.27-0.38-0.29-0.57
		C117.75,9,118.6,8.93,119,8.4c0.24-0.32,0.31-0.74,0.2-1.13c-0.2-0.68-0.94-1.15-1.7-1.08c-0.82,0.06-1.54,0.67-1.81,1.51
		c-0.29,0.92,0.01,2,0.75,2.7c0.83,0.78,2.09,1.03,3.22,0.64c1.24-0.43,2.17-1.58,2.39-2.93c0.23-1.46-0.4-3.02-1.62-3.96
		c-1.31-1.02-3.18-1.24-4.75-0.56c-1.69,0.72-2.9,2.41-3.1,4.29c-0.21,2,0.74,4.07,2.43,5.27c1.04,0.74,2.31,1.12,3.59,1.12
		c0.92,0,1.85-0.2,2.7-0.59c2.15-1,3.66-3.21,3.85-5.63C125.33,5.5,124.07,2.92,121.92,1.45z"/>
	<path d="M178.56,1.45c-2.25-1.53-5.33-1.73-7.83-0.51c-2.61,1.28-4.42,4.01-4.61,6.96c-0.01,0.12-0.01,0.25-0.02,0.37
		c-0.01,0.5,0.39,0.9,0.88,0.91c0.01,0,0.01,0,0.02,0c0.49,0,0.89-0.39,0.9-0.88c0-0.09,0-0.18,0.01-0.28
		c0.15-2.29,1.59-4.49,3.6-5.47c1.9-0.93,4.33-0.78,6.03,0.38c1.6,1.09,2.58,3.08,2.43,4.96c-0.14,1.76-1.27,3.42-2.82,4.15
		c-1.44,0.67-3.24,0.53-4.49-0.36c-1.15-0.82-1.82-2.27-1.68-3.62c0.13-1.23,0.94-2.36,2.03-2.83c0.97-0.41,2.15-0.28,2.95,0.33
		c0.69,0.54,1.07,1.45,0.95,2.26c-0.13,0.8-0.71,1.35-1.2,1.52c-0.57,0.2-1.12,0.01-1.4-0.25c-0.17-0.17-0.27-0.38-0.29-0.57
		c0.37,0.47,1.23,0.4,1.62-0.13c0.24-0.32,0.31-0.74,0.2-1.12c-0.2-0.68-0.94-1.15-1.7-1.09c-0.81,0.06-1.54,0.67-1.81,1.51
		c-0.29,0.91,0.01,2,0.75,2.7c0.83,0.78,2.09,1.03,3.22,0.64c1.23-0.43,2.17-1.58,2.39-2.93c0.23-1.47-0.4-3.02-1.62-3.96
		c-1.31-1.02-3.18-1.24-4.75-0.56c-1.69,0.72-2.91,2.4-3.11,4.29c-0.21,2,0.74,4.07,2.43,5.27c1.04,0.74,2.31,1.12,3.59,1.12
		c0.92,0,1.85-0.2,2.7-0.59c2.15-1,3.66-3.21,3.85-5.63C181.97,5.5,180.71,2.92,178.56,1.45z"/>
	<path d="M212.36,1.45c-2.25-1.53-5.33-1.73-7.83-0.51c-2.61,1.28-4.42,4.01-4.61,6.97c-0.01,0.12-0.01,0.24-0.02,0.36
		c-0.01,0.5,0.39,0.9,0.88,0.91c0.01,0,0.01,0,0.02,0c0.49,0,0.89-0.39,0.9-0.88c0-0.09,0.01-0.19,0.01-0.28
		c0.15-2.29,1.59-4.49,3.6-5.47c1.9-0.93,4.32-0.78,6.03,0.38c1.6,1.09,2.58,3.08,2.43,4.96c-0.14,1.76-1.27,3.42-2.82,4.15
		c-1.44,0.67-3.24,0.53-4.49-0.36c-1.15-0.82-1.82-2.27-1.68-3.62c0.13-1.23,0.94-2.36,2.03-2.83c0.97-0.41,2.15-0.28,2.95,0.33
		c0.69,0.54,1.07,1.45,0.95,2.26c-0.13,0.8-0.71,1.35-1.21,1.52c-0.57,0.2-1.12,0.01-1.4-0.25c-0.17-0.16-0.27-0.38-0.29-0.57
		c0.37,0.47,1.22,0.4,1.62-0.13c0.24-0.31,0.31-0.73,0.2-1.13c-0.2-0.68-0.93-1.15-1.7-1.08c-0.82,0.06-1.54,0.67-1.81,1.51
		c-0.29,0.91,0.01,2,0.75,2.7c0.83,0.78,2.09,1.03,3.22,0.64c1.23-0.43,2.17-1.58,2.39-2.93c0.23-1.47-0.4-3.02-1.62-3.96
		c-1.31-1.02-3.18-1.24-4.75-0.56c-1.69,0.72-2.91,2.4-3.11,4.29c-0.21,2,0.74,4.07,2.43,5.27c1.04,0.74,2.31,1.12,3.59,1.12
		c0.92,0,1.85-0.2,2.7-0.59c2.15-1,3.66-3.21,3.85-5.63C215.77,5.5,214.51,2.92,212.36,1.45z"/>
	<path d="M137.34,21.02c0.51,0,0.92-0.41,0.92-0.92V1.06c0-0.51-0.41-0.92-0.92-0.92s-0.92,0.41-0.92,0.92v19.05
		C136.42,20.61,136.83,21.02,137.34,21.02z"/>
	<path d="M133.59,21.02c0.51,0,0.92-0.41,0.92-0.92V1.06c0-0.51-0.41-0.92-0.92-0.92s-0.92,0.41-0.92,0.92v19.05
		C132.67,20.61,133.08,21.02,133.59,21.02z"/>
	<path d="M162.02,25.53c-4.12-4.55-10.63-6.65-16.57-5.36c-5.82,1.27-10.74,5.71-12.53,11.33c-1.75,5.5-0.4,11.78,3.46,16
		c3.02,3.31,7.42,5.18,11.84,5.18c1.09,0,2.19-0.11,3.26-0.35c5.28-1.17,9.73-5.22,11.33-10.32c1.57-4.98,0.32-10.65-3.17-14.46
		c-3.41-3.71-8.75-5.4-13.61-4.3c-4.74,1.07-8.71,4.72-10.13,9.3c-1.38,4.46-0.25,9.53,2.89,12.91c3.05,3.29,7.82,4.77,12.13,3.77
		c4.19-0.97,7.7-4.22,8.94-8.28c1.2-3.94,0.17-8.4-2.61-11.37c-2.7-2.87-6.88-4.14-10.66-3.24c-3.65,0.87-6.69,3.72-7.74,7.27
		c-1.01,3.42-0.1,7.28,2.33,9.82c2.34,2.45,5.94,3.52,9.18,2.71c3.11-0.77,5.68-3.23,6.54-6.25c0.83-2.91,0.02-6.16-2.06-8.27
		c-1.99-2.03-5.01-2.88-7.7-2.18c-2.57,0.67-4.66,2.73-5.33,5.25c-0.64,2.39,0.06,5.03,1.79,6.73c1.63,1.61,4.08,2.25,6.23,1.64
		c2.03-0.58,3.65-2.25,4.13-4.24c0.45-1.88-0.15-3.91-1.53-5.18c-1.29-1.19-3.16-1.61-4.76-1.08c-1.49,0.49-2.63,1.77-2.91,3.26
		c-0.25,1.37,0.26,2.8,1.3,3.63c0.95,0.76,2.25,0.96,3.32,0.48c0.95-0.42,1.61-1.36,1.64-2.34c0.03-0.9-0.46-1.73-1.23-2.07
		c-0.72-0.32-1.59-0.12-2.01,0.47c-0.24,0.33-0.31,0.76-0.19,1.15c0.11,0.36,0.38,0.64,0.73,0.77c0.27,0.1,0.56,0.06,0.79-0.09
		c-0.09,0.17-0.25,0.35-0.47,0.44c-0.35,0.16-0.95,0.15-1.43-0.24c-0.41-0.33-0.79-1.06-0.64-1.87c0.15-0.83,0.83-1.57,1.68-1.85
		c0.97-0.32,2.15-0.04,2.95,0.69c0.88,0.81,1.28,2.18,0.99,3.41c-0.32,1.34-1.47,2.51-2.85,2.91c-1.5,0.43-3.29-0.05-4.44-1.18
		c-1.24-1.22-1.77-3.21-1.3-4.95c0.5-1.86,2.12-3.44,4.03-3.95c2.04-0.54,4.42,0.14,5.93,1.69c1.6,1.63,2.24,4.24,1.6,6.49
		c-0.67,2.37-2.77,4.37-5.22,4.98c-2.57,0.64-5.54-0.25-7.41-2.2c-1.95-2.04-2.72-5.27-1.9-8.03c0.85-2.88,3.43-5.3,6.41-6.01
		c3.1-0.74,6.68,0.35,8.9,2.72c2.34,2.49,3.2,6.25,2.19,9.58c-1.05,3.45-4.03,6.21-7.6,7.03c-3.69,0.85-7.76-0.42-10.38-3.24
		c-2.7-2.91-3.68-7.28-2.49-11.12c1.23-3.97,4.68-7.13,8.79-8.05c4.24-0.95,8.89,0.52,11.86,3.76c3.06,3.33,4.15,8.3,2.77,12.67
		c-1.41,4.49-5.33,8.05-9.98,9.08c-4.78,1.05-10.01-0.62-13.35-4.28c-3.42-3.75-4.62-9.32-3.06-14.21
		c1.59-5.01,5.98-8.97,11.17-10.1c5.31-1.16,11.13,0.73,14.83,4.8c3.77,4.15,5.09,10.32,3.37,15.71c-1.06,2.96-2.85,5.63-5.18,7.71
		c-1.46,1.13-3.03,2.03-4.67,2.67c-6.36,2.49-12.59,0.09-12.86-0.01c-4.54-1.79-10.57-5.77-10.57-19.68V20.11V1.15V1.06
		c0-0.51-0.41-0.92-0.92-0.92s-0.92,0.41-0.92,0.92v0.08v18.96v13.06c0,11.43,3.73,18.23,11.73,21.38c0.47,0.19,3.41,1.28,7.31,1.28
		c2.1,0,4.47-0.32,6.89-1.26c1.82-0.71,3.55-1.7,5.15-2.95c0.01,0,0.01-0.01,0.02-0.01c2.58-2.3,4.56-5.24,5.74-8.52
		c0-0.01,0.01-0.01,0.01-0.01c0-0.01,0-0.02,0.01-0.02c0.01-0.02,0.01-0.03,0.02-0.05c0-0.01,0-0.03,0.01-0.04
		C167.67,36.97,166.2,30.14,162.02,25.53z"/>
	<path d="M236.34,19.8c-2.56-0.04-5,0.38-7.25,1.26c-1.82,0.71-3.55,1.7-5.14,2.94c-0.01,0.01-0.02,0.01-0.02,0.01
		c-2.58,2.3-4.56,5.24-5.74,8.52c0,0.01-0.01,0.01-0.01,0.01c0,0.01,0,0.02-0.01,0.02c-0.01,0.02-0.01,0.03-0.02,0.05
		c0,0.01,0,0.03-0.01,0.04c-1.88,5.99-0.41,12.82,3.77,17.43c3.32,3.66,8.17,5.73,13.04,5.73c1.18,0,2.37-0.12,3.53-0.38
		c5.82-1.26,10.74-5.71,12.53-11.33c1.75-5.5,0.4-11.78-3.46-16c-3.77-4.13-9.69-6.03-15.09-4.83c-5.28,1.17-9.73,5.22-11.33,10.32
		c-1.57,4.98-0.32,10.65,3.17,14.46c3.41,3.71,8.75,5.4,13.61,4.3c4.74-1.07,8.71-4.72,10.13-9.3c1.38-4.46,0.25-9.53-2.89-12.91
		c-3.05-3.29-7.82-4.77-12.13-3.77c-4.19,0.97-7.7,4.22-8.94,8.28c-1.2,3.94-0.17,8.4,2.61,11.37c2.7,2.87,6.88,4.14,10.66,3.24
		c3.65-0.87,6.69-3.72,7.74-7.27c1.01-3.42,0.1-7.28-2.33-9.82c-2.34-2.45-5.94-3.52-9.18-2.71c-3.11,0.77-5.68,3.23-6.54,6.25
		c-0.83,2.91-0.02,6.16,2.06,8.27c1.99,2.03,5.01,2.88,7.7,2.18c2.57-0.67,4.66-2.73,5.33-5.24c0.64-2.39-0.06-5.03-1.79-6.73
		c-1.64-1.61-4.08-2.25-6.23-1.64c-2.03,0.58-3.65,2.25-4.13,4.24c-0.45,1.88,0.15,3.91,1.53,5.18c1.29,1.19,3.16,1.61,4.76,1.08
		c1.49-0.49,2.63-1.77,2.91-3.26c0.25-1.37-0.26-2.8-1.3-3.63c-0.95-0.76-2.25-0.95-3.32-0.48c-0.95,0.42-1.61,1.36-1.64,2.35
		c-0.03,0.9,0.47,1.73,1.23,2.07c0.72,0.32,1.58,0.12,2-0.46c0.24-0.33,0.32-0.76,0.2-1.15c-0.11-0.36-0.38-0.65-0.73-0.77
		c-0.27-0.1-0.56-0.05-0.79,0.09c0.08-0.16,0.23-0.34,0.47-0.45c0.35-0.16,0.95-0.15,1.43,0.24c0.41,0.33,0.79,1.06,0.64,1.87
		c-0.15,0.83-0.83,1.57-1.68,1.85c-0.97,0.32-2.15,0.04-2.95-0.69c-0.88-0.81-1.28-2.19-0.99-3.41c0.32-1.34,1.47-2.51,2.85-2.91
		c1.5-0.43,3.29,0.04,4.44,1.18c1.24,1.22,1.77,3.21,1.3,4.95c-0.5,1.86-2.12,3.44-4.03,3.94c-2.04,0.54-4.42-0.14-5.93-1.69
		c-1.6-1.63-2.24-4.24-1.6-6.49c0.67-2.37,2.77-4.37,5.22-4.98c2.56-0.64,5.55,0.25,7.41,2.2c1.95,2.04,2.72,5.27,1.9,8.03
		c-0.85,2.88-3.43,5.3-6.41,6c-3.14,0.75-6.64-0.32-8.9-2.72c-2.34-2.49-3.2-6.25-2.19-9.58c1.05-3.45,4.03-6.21,7.6-7.03
		c3.69-0.85,7.76,0.42,10.38,3.24c2.7,2.91,3.68,7.28,2.49,11.12c-1.23,3.97-4.68,7.13-8.79,8.05c-4.23,0.95-8.89-0.52-11.86-3.76
		c-3.06-3.33-4.15-8.3-2.77-12.67c1.41-4.49,5.33-8.05,9.98-9.08c4.78-1.05,10.01,0.62,13.34,4.28c3.42,3.75,4.62,9.32,3.06,14.21
		c-1.59,5.01-5.98,8.97-11.17,10.1c-5.32,1.16-11.14-0.73-14.83-4.8c-3.77-4.15-5.09-10.32-3.37-15.71
		c1.07-2.96,2.85-5.63,5.18-7.71c1.45-1.13,3.03-2.03,4.67-2.67c2.02-0.79,4.21-1.17,6.55-1.13c1.47,0.02,14.43,0.71,17.76,17.26
		c0.09,0.44,0.47,0.74,0.9,0.74c0.06,0,0.12-0.01,0.18-0.02c0.5-0.1,0.82-0.58,0.72-1.08C252.25,20.58,237.96,19.83,236.34,19.8z"/>
	<path d="M259.99,17.52c-0.51,0-0.92,0.41-0.92,0.92v21.11v10.37v4.99c0,0.51,0.41,0.92,0.92,0.92s0.92-0.41,0.92-0.92v-4.99V39.55
		V18.44C260.91,17.93,260.5,17.52,259.99,17.52z"/>
	<path d="M263.75,17.52c-0.51,0-0.92,0.41-0.92,0.92v20.95c-0.01,0.06-0.03,0.11-0.03,0.17v15.36c0,0.51,0.41,0.92,0.92,0.92
		s0.92-0.41,0.92-0.92v-4.82c0.01-0.06,0.03-0.11,0.03-0.17V18.44C264.66,17.93,264.25,17.52,263.75,17.52z"/>
	<path d="M76.42,0.23c-0.51,0-0.92,0.41-0.92,0.92v38.41v10.37v4.99c0,0.51,0.41,0.92,0.92,0.92s0.92-0.41,0.92-0.92v-4.99V39.55
		V1.15C77.33,0.64,76.92,0.23,76.42,0.23z"/>
	<path d="M283.84,55.86c0.52,0,0.94-0.42,0.94-0.94l0-22.57c0.07-2.2-1.03-4.38-2.86-5.69c-0.33-0.24-0.7-0.45-1.08-0.63
		c-1.02-0.47-2.16-0.7-3.32-0.67l-0.08,0c-0.02,0-0.03,0-0.05,0c-0.01,0-0.01,0-0.02,0l-0.13,0.01l-0.53,0.02v0.01
		c-1.39,0.07-2.73,0.48-3.82,1.26c-1.83,1.31-2.93,3.48-2.86,5.68l0,22.58c0,0.25,0.1,0.49,0.28,0.67c0.18,0.18,0.41,0.27,0.66,0.27
		c0,0,0,0,0.01,0c0.52,0,0.94-0.42,0.94-0.94c0,0,0.04-22.2,0.02-22.31c-0.17-1.65,0.65-3.42,2.05-4.42
		c0.78-0.55,1.74-0.87,2.73-0.93v0.01l0.69-0.03l0.69,0.03v-0.01c1,0.07,1.95,0.38,2.73,0.93c1.4,1,2.23,2.77,2.05,4.43
		c-0.01,0.11,0.02,22.3,0.02,22.3C282.91,55.44,283.33,55.86,283.84,55.86z"/>
	<path d="M267.33,55.86c0.52,0,0.94-0.42,0.94-0.94v-22.1c0.02-0.08,0.02-0.16,0.02-0.24c-0.19-2.96,1.32-5.94,3.85-7.61
		c1.49-0.98,3.32-1.48,5.2-1.44l0.06,0l0.15,0c1.86-0.03,3.66,0.47,5.13,1.44c2.53,1.67,4.04,4.66,3.85,7.62
		c0,0.08,0,0.15,0.02,0.23v22.1c0,0.52,0.42,0.94,0.94,0.94s0.94-0.42,0.94-0.94l0-22.6c0.08-3.53-1.72-6.95-4.71-8.92
		c-0.42-0.28-0.87-0.52-1.32-0.74c-1.33-0.62-2.8-0.95-4.3-1v0l-0.67-0.02c-2.25-0.07-4.51,0.56-6.33,1.76
		c-2.99,1.97-4.79,5.39-4.71,8.94v22.59C266.39,55.44,266.82,55.86,267.33,55.86z"/>
	<path d="M100.27,55.74c0.52,0,0.94-0.42,0.94-0.94l0-22.57c0.07-2.2-1.03-4.38-2.86-5.69c-0.33-0.24-0.7-0.45-1.08-0.63
		c-1.02-0.48-2.17-0.71-3.33-0.67l-0.07,0c-0.02,0-0.03,0-0.05,0c-0.01,0-0.67,0.03-0.67,0.03c-1.39,0.07-2.73,0.49-3.82,1.27
		c-1.83,1.31-2.93,3.48-2.86,5.68l0,22.58c0,0.25,0.1,0.49,0.28,0.67c0.18,0.18,0.41,0.27,0.66,0.27c0,0,0,0,0.01,0
		c0.52,0,0.94-0.42,0.94-0.94c0,0,0.04-22.2,0.02-22.31c-0.17-1.65,0.65-3.42,2.05-4.42c0.78-0.56,1.74-0.87,2.73-0.93l0.69-0.02
		l0.69,0.02c1,0.07,1.95,0.38,2.73,0.93c1.4,1,2.23,2.77,2.05,4.43c-0.01,0.11,0.02,22.3,0.02,22.3
		C99.33,55.32,99.75,55.74,100.27,55.74z"/>
	<path d="M83.76,55.74c0.52,0,0.94-0.42,0.94-0.94V32.7c0.02-0.08,0.02-0.16,0.02-0.24c-0.19-2.96,1.32-5.94,3.85-7.61
		c1.49-0.98,3.32-1.48,5.2-1.44l0.06,0l0.15,0c1.87-0.03,3.66,0.47,5.13,1.44c2.53,1.67,4.04,4.66,3.85,7.62
		c0,0.08,0,0.15,0.02,0.23v22.1c0,0.52,0.42,0.94,0.94,0.94s0.94-0.42,0.94-0.94l0-22.6c0.08-3.53-1.72-6.95-4.71-8.92
		c-0.42-0.28-0.87-0.53-1.32-0.74c-1.33-0.62-2.81-0.95-4.3-1v0l-0.67-0.02c-2.27-0.07-4.51,0.56-6.33,1.76
		c-2.99,1.97-4.79,5.39-4.71,8.94V54.8C82.82,55.32,83.24,55.74,83.76,55.74z"/>
	<path d="M83.92,17.11c0.51,0,0.92-0.41,0.92-0.92V1.15c0-0.51-0.41-0.92-0.92-0.92s-0.92,0.41-0.92,0.92V16.2
		C83.01,16.7,83.42,17.11,83.92,17.11z"/>
	<path d="M80.17,0.23c-0.51,0-0.92,0.41-0.92,0.92v17.29v5.08v15.86c-0.01,0.06-0.03,0.11-0.03,0.17v15.36
		c0,0.51,0.41,0.92,0.92,0.92s0.92-0.41,0.92-0.92v-4.82c0.01-0.06,0.03-0.11,0.03-0.17v-26.4v-5.08V1.15
		C81.09,0.64,80.68,0.23,80.17,0.23z"/>
	<path d="M267.7,23.69c0.17,0,0.32-0.05,0.45-0.13l0.77-0.64c0.44-0.38,0.9-0.74,1.38-1.04c1.86-1.19,4.14-1.86,6.43-1.93v0.01
		l0.69-0.01l0.69,0.01v-0.01c2.3,0.06,4.57,0.74,6.43,1.93c3.63,2.32,5.86,6.55,5.67,10.8l0.01,22.24c0,0.52,0.42,0.94,0.94,0.94
		c0.52,0,0.94-0.42,0.94-0.94l0-22.53c0.08-4.76-2.49-9.51-6.55-12.1c-0.5-0.32-1.03-0.61-1.58-0.86c-1.81-0.84-3.83-1.29-5.86-1.33
		v-0.01l-0.67-0.01c-0.01,0-0.01,0-0.02,0c0,0-0.01,0-0.01,0l-0.12,0c-2.88-0.02-5.65,0.73-7.99,2.22
		c-0.78,0.49-1.51,1.08-2.18,1.73c-0.21,0.17-0.36,0.43-0.36,0.72C266.75,23.26,267.17,23.69,267.7,23.69z"/>
	<path d="M102.08,20.29c-0.5-0.32-1.04-0.61-1.58-0.86c-1.81-0.84-3.83-1.29-5.86-1.33v-0.01l-0.67-0.01c-0.01,0-0.01,0-0.02,0
		c0,0-0.01,0-0.01,0l-0.12,0c-2.88-0.02-5.65,0.73-7.99,2.22c-0.78,0.49-1.51,1.08-2.18,1.73c-0.21,0.17-0.36,0.43-0.36,0.72
		c0,0.52,0.42,0.95,0.95,0.95c0.17,0,0.32-0.05,0.45-0.13l0.77-0.64c0.44-0.38,0.9-0.74,1.38-1.04c1.86-1.19,4.14-1.86,6.43-1.93
		v0.01l0.69-0.01l0.69,0.01v-0.01c2.3,0.06,4.57,0.74,6.43,1.93c3.64,2.32,5.86,6.55,5.67,10.8l0.01,22.24
		c0,0.52,0.42,0.94,0.94,0.94c0.52,0,0.94-0.42,0.94-0.94l0-22.53C108.72,27.63,106.15,22.87,102.08,20.29z"/>
	<path d="M72.42,24.38c-0.36-0.36-0.94-0.36-1.29,0L59.48,36.02l-1.36-1.36l11.64-11.64c0.36-0.36,0.36-0.94,0-1.3
		c-0.36-0.36-0.94-0.36-1.29,0L56.83,33.37l-1.36-1.36l11.64-11.64c0.36-0.36,0.36-0.94,0-1.3c-0.36-0.36-0.94-0.36-1.29,0
		L54.17,30.71L42.53,19.07c-0.36-0.36-0.94-0.36-1.29,0c-0.36,0.36-0.36,0.94,0,1.3l11.64,11.64l-1.36,1.36L39.88,21.72
		c-0.36-0.36-0.94-0.36-1.29,0c-0.36,0.36-0.36,0.94,0,1.3l11.64,11.64l-1.36,1.36L37.23,24.38c-0.36-0.36-0.94-0.36-1.29,0
		c-0.36,0.36-0.36,0.94,0,1.3l11.64,11.64L35.93,48.96c-0.36,0.36-0.36,0.94,0,1.3c0.18,0.18,0.41,0.27,0.65,0.27
		s0.47-0.09,0.65-0.27l11.64-11.64l1.36,1.36L38.58,51.61c-0.36,0.36-0.36,0.94,0,1.3c0.18,0.18,0.41,0.27,0.65,0.27
		s0.47-0.09,0.65-0.27l11.64-11.64l1.36,1.36L41.24,54.26c-0.36,0.36-0.36,0.94,0,1.29c0.18,0.18,0.41,0.27,0.65,0.27
		s0.47-0.09,0.65-0.27l11.64-11.64l11.64,11.64c0.18,0.18,0.41,0.27,0.65,0.27s0.47-0.09,0.65-0.27c0.36-0.36,0.36-0.94,0-1.29
		L55.47,42.62l1.36-1.36l11.64,11.64c0.18,0.18,0.41,0.27,0.65,0.27s0.47-0.09,0.65-0.27c0.36-0.36,0.36-0.94,0-1.3L58.12,39.97
		l1.36-1.36l11.64,11.64c0.18,0.18,0.41,0.27,0.65,0.27s0.47-0.09,0.65-0.27c0.36-0.36,0.36-0.94,0-1.3L60.78,37.31l11.64-11.64
		C72.78,25.32,72.78,24.74,72.42,24.38z M54.17,33.3l1.36,1.36l-1.36,1.36l-1.36-1.36L54.17,33.3z M50.16,37.31l1.36-1.36l1.36,1.36
		l-1.36,1.36L50.16,37.31z M54.17,41.33l-1.36-1.36l1.36-1.36l1.36,1.36L54.17,41.33z M56.83,38.67l-1.36-1.36l1.36-1.36l1.36,1.36
		L56.83,38.67z"/>
	<path d="M185.92,0.23c-0.51,0-0.92,0.41-0.92,0.92v53.68c0,0.51,0.41,0.92,0.92,0.92s0.92-0.41,0.92-0.92V1.15
		C186.83,0.64,186.42,0.23,185.92,0.23z"/>
	<path d="M201.44,18.21c0-0.51-0.41-0.92-0.92-0.92h-6.19V1.15c0-0.51-0.41-0.92-0.92-0.92s-0.92,0.41-0.92,0.92v17.98h8.02
		C201.03,19.13,201.44,18.72,201.44,18.21z"/>
	<path d="M189.67,0.23c-0.51,0-0.92,0.41-0.92,0.92v53.68c0,0.51,0.41,0.92,0.92,0.92s0.92-0.41,0.92-0.92V1.15
		C190.59,0.64,190.18,0.23,189.67,0.23z"/>
	<path d="M193.35,55.83c0.51,0,0.92-0.41,0.92-0.92V22.43c0-0.51-0.41-0.92-0.92-0.92s-0.92,0.41-0.92,0.92v32.48
		C192.43,55.42,192.84,55.83,193.35,55.83z"/>
	<g>
		<path d="M114.68,55.86c0.51,0,0.92-0.41,0.92-0.92V21.39c0-0.51-0.41-0.92-0.92-0.92s-0.92,0.41-0.92,0.92v33.55
			C113.77,55.45,114.18,55.86,114.68,55.86z"/>
		<path d="M122.15,55.86c0.51,0,0.92-0.41,0.92-0.92V21.39c0-0.51-0.41-0.92-0.92-0.92s-0.92,0.41-0.92,0.92v33.55
			C121.24,55.45,121.65,55.86,122.15,55.86z"/>
		<path d="M118.42,55.86c0.51,0,0.92-0.41,0.92-0.92V21.39c0-0.51-0.41-0.92-0.92-0.92s-0.92,0.41-0.92,0.92v33.55
			C117.5,55.45,117.91,55.86,118.42,55.86z"/>
	</g>
	<g>
		<path d="M171.31,55.86c0.51,0,0.92-0.41,0.92-0.92V21.39c0-0.51-0.41-0.92-0.92-0.92s-0.92,0.41-0.92,0.92v33.55
			C170.39,55.45,170.8,55.86,171.31,55.86z"/>
		<path d="M178.78,55.86c0.51,0,0.92-0.41,0.92-0.92V21.39c0-0.51-0.41-0.92-0.92-0.92s-0.92,0.41-0.92,0.92v33.55
			C177.86,55.45,178.27,55.86,178.78,55.86z"/>
		<path d="M175.04,55.86c0.51,0,0.92-0.41,0.92-0.92V21.39c0-0.51-0.41-0.92-0.92-0.92s-0.92,0.41-0.92,0.92v33.55
			C174.13,55.45,174.54,55.86,175.04,55.86z"/>
	</g>
	<g>
		<path d="M205.13,55.86c0.51,0,0.92-0.41,0.92-0.92V21.39c0-0.51-0.41-0.92-0.92-0.92s-0.92,0.41-0.92,0.92v33.55
			C204.21,55.45,204.62,55.86,205.13,55.86z"/>
		<path d="M212.6,55.86c0.51,0,0.92-0.41,0.92-0.92V21.39c0-0.51-0.41-0.92-0.92-0.92s-0.92,0.41-0.92,0.92v33.55
			C211.68,55.45,212.09,55.86,212.6,55.86z"/>
		<path d="M208.86,55.86c0.51,0,0.92-0.41,0.92-0.92V21.39c0-0.51-0.41-0.92-0.92-0.92s-0.92,0.41-0.92,0.92v33.55
			C207.95,55.45,208.36,55.86,208.86,55.86z"/>
	</g>
	<path d="M311.4,36.87c-0.71-0.44-1.67-0.88-2.04-1.05c-0.05-0.02-0.11-0.05-0.17-0.07c0,0,0,0,0,0c-1.08-0.48-2.09-0.94-2.95-1.33
		c-1.12-0.55-2.05-1.06-2.77-1.49c-0.05-0.03-0.09-0.06-0.14-0.08c-0.17-0.1-0.32-0.2-0.47-0.29c-1.33-0.87-2.24-1.82-2.24-1.82l0,0
		c-0.85-0.93-1.27-1.7-1.46-2.15c-0.36-0.94-0.54-1.94-0.48-2.93c0.15-2.36,1.64-4.63,3.72-5.65c1.96-0.96,4.46-0.8,6.22,0.39
		c1.65,1.13,2.66,3.18,2.51,5.12c-0.14,1.81-1.31,3.53-2.91,4.28c-1.48,0.69-3.34,0.54-4.63-0.37c-1.18-0.84-1.88-2.35-1.73-3.73
		c0.13-1.27,0.98-2.44,2.09-2.92c1-0.43,2.23-0.29,3.04,0.34c0.72,0.56,1.11,1.49,0.98,2.34c-0.13,0.82-0.74,1.39-1.24,1.57
		c-0.59,0.2-1.16,0.01-1.45-0.26c-0.19-0.18-0.28-0.4-0.31-0.6c0.38,0.49,1.26,0.43,1.68-0.12c0.24-0.32,0.32-0.75,0.2-1.15
		c-0.21-0.7-0.97-1.18-1.75-1.12c-0.84,0.07-1.59,0.69-1.86,1.55c-0.3,0.94,0.01,2.06,0.77,2.78c0.85,0.81,2.15,1.06,3.32,0.66
		c1.27-0.44,2.24-1.63,2.46-3.02c0.24-1.51-0.41-3.11-1.67-4.08c-1.35-1.05-3.27-1.27-4.89-0.58c-1.74,0.74-2.99,2.48-3.2,4.41
		c-0.22,2.06,0.76,4.19,2.5,5.43c1.84,1.31,4.38,1.52,6.48,0.54c2.21-1.03,3.77-3.31,3.97-5.8c0.21-2.62-1.09-5.28-3.31-6.79
		c-2.32-1.58-5.49-1.78-8.06-0.52c-2.69,1.32-4.55,4.14-4.74,7.18c-0.08,1.3,0.15,2.6,0.63,3.81c0.47,1.05,1.64,2.91,4.45,4.7
		c1.3,0.81,3.06,1.78,5.44,2.89c0.2,0.09,0.41,0.19,0.62,0.29c0.12,0.05,0.24,0.11,0.36,0.16c0,0-0.01,0-0.01,0l0.93,0.42
		c-0.05-0.02-0.09-0.04-0.13-0.07c0.09,0.04,0.17,0.08,0.27,0.12l0,0l0.15,0.08l-0.28-0.13c0.61,0.31,1.43,0.8,2.17,1.46
		c0.17,0.16,0.34,0.32,0.5,0.49c0.02,0.02,0.04,0.04,0.05,0.06c1.54,1.74,2.42,4.08,2.3,6.35c-0.15,2.91-1.97,5.73-4.52,7.02
		c-2.44,1.23-5.57,1.07-7.81-0.4c-2.13-1.4-3.45-4.02-3.29-6.5c0.15-2.36,1.64-4.63,3.72-5.65c1.96-0.96,4.46-0.8,6.22,0.39
		c1.65,1.13,2.66,3.18,2.51,5.12c-0.14,1.81-1.31,3.53-2.91,4.28c-1.48,0.69-3.34,0.54-4.63-0.37c-1.18-0.84-1.88-2.35-1.73-3.73
		c0.13-1.27,0.98-2.44,2.09-2.92c1-0.43,2.23-0.29,3.04,0.34c0.72,0.56,1.11,1.49,0.98,2.34c-0.13,0.82-0.74,1.39-1.24,1.57
		c-0.59,0.2-1.16,0.01-1.45-0.26c-0.19-0.18-0.28-0.4-0.31-0.6c0.38,0.49,1.26,0.43,1.68-0.12c0.24-0.32,0.32-0.75,0.2-1.15
		c-0.21-0.7-0.97-1.18-1.75-1.12c-0.84,0.07-1.59,0.69-1.86,1.55c-0.3,0.94,0.01,2.06,0.77,2.78c0.85,0.81,2.15,1.06,3.32,0.66
		c1.27-0.44,2.24-1.63,2.46-3.02c0.24-1.51-0.41-3.11-1.67-4.08c-1.35-1.05-3.27-1.27-4.89-0.58c-1.74,0.74-2.99,2.48-3.2,4.41
		c-0.22,2.06,0.76,4.19,2.5,5.43c1.84,1.31,4.38,1.52,6.48,0.54c2.21-1.03,3.77-3.31,3.97-5.8c0.21-2.62-1.09-5.28-3.31-6.79
		c-2.32-1.58-5.49-1.78-8.06-0.52c-2.69,1.32-4.55,4.14-4.74,7.18c-0.2,3.17,1.41,6.38,4.11,8.16c2.81,1.85,6.6,2.05,9.65,0.51
		c3.17-1.6,5.34-4.96,5.53-8.56C316.33,42.61,314.47,38.95,311.4,36.87z"/>
</g>
<g id="Layer_2">
</g>
</svg>
