<?xml version="1.0" encoding="utf-8"?>
<!-- Generator: Adobe Illustrator 24.2.3, SVG Export Plug-In . SVG Version: 6.00 Build 0)  -->
<svg version="1.1" xmlns="http://www.w3.org/2000/svg" xmlns:xlink="http://www.w3.org/1999/xlink" x="0px" y="0px"
	 viewBox="0 0 193.89 55.78" style="enable-background:new 0 0 193.89 55.78;" xml:space="preserve">
<style type="text/css">
	.st0{fill:#9D9D9C;}
	.st1{fill:#009FE3;}
	.st2{fill:#FFED00;}
	.st3{fill:none;stroke:#9D9D9C;stroke-width:1.32;}
	.st4{fill:none;}
	.st5{clip-path:url(#SVGID_2_);fill:#055F2C;}
	.st6{fill:#055F2C;}
	.st7{clip-path:url(#SVGID_4_);fill:#055F2C;}
	.st8{clip-path:url(#SVGID_6_);fill:#055F2C;}
</style>
<g id="Layer_1">
	<g>
		<defs>
			<rect id="SVGID_1_" width="193.89" height="55.78"/>
		</defs>
		<clipPath id="SVGID_2_">
			<use xlink:href="#SVGID_1_"  style="overflow:visible;"/>
		</clipPath>
		<path class="st5" d="M166.57,1.69c-0.1-0.04-0.21-0.06-0.31-0.06c-0.13,0-0.26,0.03-0.39,0.09h0c-0.22,0.1-0.39,0.29-0.48,0.52
			c-0.08,0.23-0.07,0.48,0.03,0.7l7.49,16.03v-4.35l-5.82-12.46C166.99,1.94,166.8,1.77,166.57,1.69"/>
		<path class="st5" d="M169.89,0.08c-0.1-0.04-0.21-0.06-0.31-0.06c-0.13,0-0.26,0.03-0.39,0.09c-0.22,0.1-0.39,0.29-0.48,0.52
			c-0.08,0.23-0.07,0.48,0.03,0.7l4.17,8.93V5.91l-2.5-5.36C170.3,0.33,170.12,0.17,169.89,0.08"/>
		<path class="st5" d="M40.05,26.42c1.19-1.05,2.52-1.93,3.98-2.61c3.98-1.85,8.44-2.05,12.58-0.54c4.13,1.5,7.43,4.52,9.28,8.5v0
			c0.04,0.08,6.9,14.8,6.97,14.94c0.21,0.46,0.01,1.02-0.45,1.23c-0.45,0.21-1.02,0-1.23-0.45c-0.07-0.15-6.93-14.87-6.97-14.95
			c-1.64-3.52-4.57-6.2-8.23-7.53c-1.63-0.59-3.33-0.89-5.01-0.89c-2.1,0-4.19,0.46-6.14,1.37c-1.29,0.6-2.48,1.38-3.53,2.31
			c-0.19,0.17-0.43,0.24-0.67,0.23c-0.25-0.02-0.47-0.13-0.64-0.31C39.63,27.35,39.67,26.76,40.05,26.42 M72.17,27.3
			c0.08-0.23,0.25-0.42,0.48-0.52c0.12-0.06,0.26-0.09,0.39-0.09c0.11,0,0.21,0.02,0.31,0.06c0.23,0.08,0.42,0.25,0.52,0.48l2.33,5
			v0l0,0.01V28.2l0-0.01v0l-1.14-2.44c-0.11-0.22-0.11-0.47-0.03-0.7s0.25-0.42,0.48-0.52c0.12-0.06,0.26-0.09,0.39-0.09
			c0.1,0,0.21,0.02,0.31,0.05V4.58V0.05V0.02H49.16L36.54,0v0.02v4.56v41.06c0.37-0.1,0.77,0.05,0.99,0.37
			c0.28,0.42,0.17,0.99-0.25,1.28c-0.24,0.16-0.49,0.31-0.75,0.44v0.09v1.91c0.17-0.07,0.34-0.13,0.51-0.21
			c0.28-0.13,0.56-0.28,0.83-0.44c0.21-0.13,0.46-0.16,0.7-0.1c0.24,0.06,0.44,0.21,0.56,0.42c0.26,0.44,0.12,1-0.32,1.26
			c-0.32,0.19-0.65,0.37-1,0.53c-0.41,0.19-0.83,0.36-1.29,0.5v1.85c0.72-0.19,1.4-0.44,2.05-0.74c0.29-0.14,0.58-0.28,0.85-0.44
			c0.22-0.12,0.46-0.15,0.7-0.08c0.24,0.07,0.43,0.22,0.55,0.44c0.12,0.21,0.15,0.46,0.08,0.7c-0.07,0.24-0.22,0.43-0.44,0.55
			c-0.31,0.18-0.64,0.34-0.97,0.5c-0.9,0.42-1.85,0.75-2.83,0.98v0.18l15.62,0.02c-0.21-0.02-0.42-0.04-0.62-0.06
			c-4.2-0.55-7.95-3.41-9.55-7.28c-1.55-3.76-0.96-8.23,1.49-11.4c2.08-2.69,5.4-4.29,8.74-4.29c0.47,0,0.94,0.03,1.41,0.1
			c3.66,0.51,6.91,3.02,8.28,6.4c1.32,3.26,0.78,7.13-1.36,9.86c-2.07,2.62-5.5,4.01-8.75,3.53c-3.13-0.46-5.88-2.63-7.01-5.52
			c-1.09-2.78-0.6-6.04,1.24-8.32c1.76-2.18,4.65-3.31,7.36-2.87c2.59,0.42,4.84,2.24,5.74,4.65c0.85,2.29,0.41,4.95-1.12,6.78
			c-1.45,1.74-3.8,2.6-5.97,2.2c-2.05-0.38-3.8-1.86-4.46-3.78c-0.62-1.8-0.22-3.86,1.01-5.24c1.15-1.29,2.95-1.88,4.58-1.51
			c1.49,0.34,2.77,1.52,3.17,2.94c0.37,1.31,0,2.79-0.94,3.7c-0.86,0.83-2.15,1.15-3.23,0.79c-0.98-0.33-1.72-1.19-1.85-2.16
			c-0.13-1.02,0.42-1.83,1.02-2.17c0.79-0.45,1.62-0.2,2.04,0.27c0.28,0.32,0.39,0.73,0.3,1.13c-0.08,0.37-0.31,0.68-0.65,0.84
			l-0.85,0.33l0.85,0.05c0.18,0.01,0.65-0.01,1.07-0.41c0.45-0.44,0.63-1.2,0.44-1.86c-0.22-0.77-0.96-1.44-1.8-1.64
			c-0.95-0.21-2.1,0.17-2.79,0.94c-0.77,0.86-1.03,2.26-0.64,3.4c0.44,1.28,1.66,2.3,3.04,2.56c1.5,0.28,3.19-0.35,4.21-1.56
			c1.11-1.33,1.43-3.27,0.8-4.94c-0.67-1.79-2.35-3.15-4.29-3.46c-2.06-0.33-4.27,0.53-5.62,2.2c-1.43,1.77-1.8,4.31-0.95,6.48
			c0.89,2.28,3.07,3.99,5.55,4.36c2.61,0.38,5.36-0.73,7.02-2.84c1.74-2.21,2.17-5.36,1.1-8.01c-1.12-2.78-3.79-4.84-6.81-5.26
			c-3.14-0.43-6.45,0.94-8.43,3.49c-2.05,2.65-2.54,6.4-1.24,9.55c1.35,3.27,4.51,5.68,8.07,6.15c3.68,0.48,7.54-1.14,9.83-4.13
			c2.35-3.08,2.9-7.42,1.39-11.06c0,0-2.07-4.44-2.08-4.46c-1.24-2.65-3.44-4.67-6.19-5.67c-2.76-1-5.74-0.88-8.38,0.36
			c-0.76,0.35-1.47,0.79-2.12,1.3c-0.4,0.31-0.99,0.24-1.3-0.16c-0.31-0.41-0.24-0.99,0.16-1.3c0.76-0.59,1.6-1.1,2.48-1.51
			c6.41-2.99,14.05-0.21,17.04,6.2c0.08,0.18,5.81,12.47,6.97,14.94c0.1,0.22,0.12,0.48,0.03,0.71c-0.09,0.23-0.26,0.42-0.48,0.52
			c-0.12,0.06-0.25,0.09-0.39,0.09c-0.36,0-0.69-0.21-0.84-0.54l-2.24-4.81l-0.09,0.61c-0.32,2.17-1.18,4.22-2.47,5.91
			c-2.18,2.86-5.54,4.65-9.11,4.91l21.9,0.03h0.34v-9.9c-0.01,0.04-0.02,0.07-0.03,0.11c-0.08,0.23-0.25,0.42-0.48,0.52
			c-0.12,0.06-0.25,0.09-0.39,0.09c-0.36,0-0.69-0.21-0.84-0.53c-4.62-9.9-6.96-14.92-6.96-14.93c-2.06-4.42-5.71-7.76-10.29-9.43
			c-2.04-0.74-4.15-1.11-6.26-1.11c-2.62,0-5.23,0.57-7.67,1.71c-1.93,0.9-3.66,2.11-5.16,3.59c-0.36,0.36-0.95,0.36-1.31,0
			c-0.36-0.36-0.36-0.95,0-1.31c1.65-1.64,3.56-2.97,5.68-3.96c4.85-2.26,10.3-2.5,15.35-0.66c5.04,1.84,9.07,5.52,11.33,10.37
			l6.97,14.95c0.03,0.06,0.05,0.12,0.06,0.18v-8.77L72.2,28C72.09,27.78,72.08,27.53,72.17,27.3"/>
		<path class="st5" d="M109.03,22.14c0.08-0.23,0.25-0.42,0.48-0.52c0.13-0.06,0.26-0.09,0.39-0.09c0.35,0,0.69,0.2,0.84,0.53
			l15.06,32.3c0.1,0.22,0.12,0.48,0.03,0.71c-0.08,0.23-0.25,0.42-0.48,0.52c-0.45,0.21-1.03,0-1.23-0.45l-15.06-32.3
			C108.96,22.62,108.94,22.37,109.03,22.14 M112.32,20.6c0.08-0.23,0.26-0.42,0.48-0.52c0.13-0.06,0.26-0.09,0.39-0.09
			c0.35,0,0.68,0.2,0.84,0.53l15.06,32.3c0.22,0.46,0.01,1.02-0.45,1.23c-0.44,0.21-1.02,0-1.23-0.45l-15.06-32.3
			C112.25,21.09,112.23,20.84,112.32,20.6 M119.77,17.71c1.51-1.87,3.84-2.96,6.18-2.96c0.39,0,0.79,0.03,1.17,0.09
			c2.59,0.42,4.84,2.24,5.74,4.65c0.85,2.29,0.41,4.95-1.12,6.78c-1.2,1.44-3.03,2.3-4.89,2.3c-0.36,0-0.72-0.03-1.07-0.1
			c-2.05-0.38-3.8-1.86-4.46-3.78c-0.62-1.8-0.22-3.86,1.01-5.24c1.15-1.29,2.95-1.88,4.59-1.52c1.49,0.34,2.77,1.52,3.17,2.94
			c0.37,1.31,0,2.79-0.94,3.7c-0.85,0.83-2.15,1.15-3.23,0.79c-0.98-0.33-1.72-1.19-1.85-2.16c-0.13-1.03,0.42-1.83,1.02-2.17
			c0.79-0.45,1.62-0.2,2.04,0.27c0.28,0.32,0.39,0.73,0.3,1.13c-0.08,0.38-0.32,0.68-0.65,0.84l-0.87,0.33l0.87,0.05
			c0.18,0.01,0.66-0.01,1.07-0.41c0.45-0.44,0.63-1.2,0.45-1.86c-0.22-0.77-0.96-1.44-1.8-1.63c-0.95-0.22-2.1,0.17-2.79,0.94
			c-0.77,0.86-1.03,2.26-0.64,3.4c0.44,1.28,1.66,2.3,3.04,2.56c1.5,0.28,3.19-0.35,4.21-1.56c1.11-1.33,1.43-3.26,0.8-4.94
			c-0.67-1.79-2.35-3.15-4.29-3.47c-2.07-0.34-4.27,0.53-5.62,2.2c-1.16,1.43-1.63,3.42-1.27,5.33c0.14,0.57,0.39,1.24,0.74,2
			l11.7,25.09c0.1,0.22,0.12,0.48,0.03,0.71c-0.08,0.23-0.25,0.42-0.48,0.52c-0.48,0.22-1.03,0-1.24-0.45l-11.85-25.41
			c-0.49-1.06-0.73-2.14-0.79-2.43C117.71,21.91,118.35,19.47,119.77,17.71 M108.97,55.68h24.32V0h-24.32V55.68z"/>
		<path class="st5" d="M172.92,6.7l20.88,44.7c0.22,0.46,0.01,1.01-0.44,1.22c-0.45,0.21-1.02,0-1.22-0.44l-19.21-41.12v4.35
			l17.48,37.41c0.1,0.22,0.12,0.47,0.03,0.7c-0.08,0.23-0.25,0.42-0.48,0.52c-0.45,0.21-1.02,0-1.22-0.45l-15.81-33.84v4.35
			l14.17,30.34c0.1,0.22,0.11,0.47,0.03,0.7c-0.08,0.23-0.25,0.42-0.48,0.52c0,0,0,0-0.01,0h7.24V0h-20.97V6.7z"/>
		<path class="st5" d="M185.42,55.23l-12.51-26.77v27.21h12.98C185.69,55.59,185.52,55.44,185.42,55.23"/>
		<path class="st5" d="M35.77,53.72c-5.66,0.99-11.31-1.96-13.73-7.16L1.75,3.64C1.6,3.31,1.27,3.11,0.92,3.11
			c-0.13,0-0.26,0.03-0.39,0.09c-0.22,0.1-0.39,0.29-0.47,0.52c-0.08,0.23-0.07,0.48,0.03,0.71l20.28,42.91
			c2.38,5.11,7.58,8.41,13.23,8.41c0.69,0,1.4-0.05,2.11-0.16c0.26-0.04,0.54-0.09,0.83-0.15v-1.89
			C36.26,53.63,36.01,53.68,35.77,53.72"/>
		<path class="st5" d="M35.8,49.98c-1.78,0.45-3.64,0.36-5.38-0.27c-2.3-0.84-4.14-2.53-5.18-4.75L5.01,2.16
			C4.86,1.83,4.53,1.64,4.18,1.64c-0.13,0-0.27,0.03-0.39,0.09C3.33,1.94,3.13,2.49,3.35,2.95l20.23,42.79
			c2.1,4.5,7.1,7.16,12.15,6.15c0.25-0.05,0.52-0.12,0.82-0.2v-1.93C36.27,49.85,36.03,49.93,35.8,49.98"/>
		<path class="st5" d="M36.54,45.73c-0.21,0.14-0.44,0.26-0.67,0.37l-0.04,0.02c-2.67,1.21-5.85,0.03-7.08-2.62L8.43,0.53
			c-0.1-0.22-0.29-0.39-0.52-0.47C7.81,0.02,7.7,0,7.6,0C7.47,0,7.33,0.03,7.21,0.09c-0.22,0.1-0.39,0.29-0.47,0.52
			c-0.08,0.23-0.07,0.48,0.03,0.7l20.31,42.98c1.47,3.14,5.08,4.91,8.61,3.84c0.33-0.1,0.6-0.2,0.85-0.31v-0.09V45.73z"/>
		<path class="st5" d="M163.21,3.95c-0.1-0.04-0.21-0.06-0.32-0.06c-0.13,0-0.26,0.03-0.39,0.09c-0.46,0.22-0.66,0.76-0.44,1.22
			l10.85,23.23v-4.35l-9.18-19.65C163.62,4.21,163.44,4.04,163.21,3.95"/>
		<path class="st5" d="M96.69,46.15c-2.67,1.24-5.85,0.09-7.1-2.58l-9.44-20.25c-0.1-0.22-0.29-0.39-0.52-0.48
			c-0.23-0.09-0.48-0.07-0.7,0.03c-0.22,0.1-0.39,0.29-0.48,0.52c-0.08,0.23-0.07,0.48,0.03,0.7l9.44,20.25
			c1.18,2.52,3.73,4.15,6.52,4.15c1.05,0,2.07-0.23,3.03-0.67c3.59-1.67,5.15-5.96,3.47-9.54L91.5,18.02
			c-0.22-0.46-0.76-0.66-1.22-0.45c-0.22,0.1-0.39,0.29-0.48,0.52c-0.08,0.23-0.07,0.48,0.03,0.7l9.44,20.25
			C100.52,41.72,99.36,44.9,96.69,46.15"/>
		<path class="st5" d="M76.2,24.49L76.2,24.49L76.2,24.49v2.97v0v0.74v0l8.21,17.62c1.24,2.66,3.44,4.68,6.2,5.68
			c1.22,0.44,2.49,0.67,3.76,0.67c1.6,0,3.16-0.35,4.64-1.04c2.65-1.24,4.67-3.44,5.68-6.2c1-2.76,0.88-5.74-0.36-8.4l-9.38-20.12
			c-0.1-0.22-0.29-0.39-0.52-0.48c-0.23-0.08-0.48-0.07-0.7,0.03c-0.22,0.1-0.39,0.29-0.48,0.52c-0.08,0.23-0.07,0.48,0.03,0.71
			l9.38,20.12c1.03,2.21,1.14,4.69,0.3,6.99c-0.84,2.3-2.51,4.13-4.72,5.16c-2.21,1.03-4.7,1.14-6.99,0.31
			c-2.3-0.84-4.13-2.51-5.16-4.73l-7.02-15.05v0l-2.34-5.01c-0.03-0.07-0.08-0.14-0.13-0.2c-0.01-0.01-0.02-0.02-0.02-0.03
			c-0.05-0.06-0.11-0.11-0.17-0.15c0,0,0,0,0,0h0C76.34,24.56,76.28,24.52,76.2,24.49C76.21,24.5,76.21,24.49,76.2,24.49z"/>
	</g>
	<rect x="76.2" y="28.19" transform="matrix(0.9139 -0.4059 0.4059 0.9139 -4.8849 33.3597)" class="st6" width="0" height="0.01"/>
	<rect x="76.2" y="28.19" transform="matrix(0.9139 -0.4059 0.4059 0.9139 -4.8849 33.3597)" class="st6" width="0" height="0.01"/>
	<g>
		<defs>
			<rect id="SVGID_3_" width="193.89" height="55.78"/>
		</defs>
		<clipPath id="SVGID_4_">
			<use xlink:href="#SVGID_3_"  style="overflow:visible;"/>
		</clipPath>
		<path class="st7" d="M76.2,24.49L76.2,24.49c-0.1-0.04-0.2-0.05-0.31-0.05C76,24.44,76.1,24.46,76.2,24.49"/>
		<path class="st7" d="M76.2,24.49L76.2,24.49c-0.1-0.04-0.2-0.05-0.31-0.05C76,24.44,76.1,24.46,76.2,24.49"/>
		<path class="st7" d="M98.18,14.96c-0.11-0.22-0.29-0.39-0.52-0.48c-0.23-0.08-0.48-0.07-0.7,0.03c-0.46,0.22-0.66,0.76-0.44,1.23
			l9.39,20.14c2.96,6.34,0.2,13.9-6.14,16.86c-3.07,1.43-6.52,1.58-9.7,0.42c-3.18-1.16-5.73-3.49-7.16-6.56L76.2,32.23v0h0v4.36
			l5.04,10.8c2.38,5.1,7.55,8.39,13.19,8.39h0c2.12,0,4.18-0.46,6.12-1.36c3.51-1.64,6.18-4.55,7.51-8.2
			c1.33-3.65,1.16-7.6-0.48-11.11L98.18,14.96z"/>
	</g>
	<rect x="76.2" y="32.22" transform="matrix(0.9139 -0.4059 0.4059 0.9139 -6.5206 33.7066)" class="st6" width="0" height="0.01"/>
	<rect x="76.2" y="32.22" transform="matrix(0.9139 -0.4059 0.4059 0.9139 -6.5206 33.7066)" class="st6" width="0" height="0.01"/>
	<polygon class="st6" points="76.2,36.58 76.21,36.59 76.21,32.23 76.2,32.23 76.2,32.22 	"/>
	<g>
		<defs>
			<rect id="SVGID_5_" width="193.89" height="55.78"/>
		</defs>
		<clipPath id="SVGID_6_">
			<use xlink:href="#SVGID_5_"  style="overflow:visible;"/>
		</clipPath>
		<path class="st8" d="M172.42,43.98L172.42,43.98c-0.22-0.12-0.47-0.15-0.71-0.08c-0.24,0.07-0.44,0.23-0.56,0.44
			c-1.9,3.45-4.81,6.16-8.39,7.83c-4.49,2.09-9.52,2.31-14.17,0.62c-4.62-1.68-8.32-5.06-10.42-9.5c-1.07-2.49-1.46-5.27-1.13-8.06
			c0.33-2.78,1.34-5.37,2.92-7.5c1.57-2.1,3.73-3.79,6.23-4.87c2.49-1.07,5.15-1.47,7.7-1.17c2.52,0.3,4.97,1.29,7.08,2.87
			c2.09,1.57,3.71,3.6,4.69,5.88c0.96,2.25,1.31,4.78,1.01,7.31c-0.3,2.5-1.22,4.84-2.65,6.75c-1.42,1.89-3.36,3.4-5.62,4.36
			c-2.24,0.95-4.63,1.31-6.92,1.03c-4.6-0.56-8.73-3.65-10.52-7.87c-1.74-4.1-1.15-9.02,1.51-12.53c2.58-3.41,6.96-5.27,11.14-4.75
			c4.07,0.51,7.7,3.25,9.27,6.98c1.51,3.61,0.98,7.94-1.37,11.01c-2.27,2.97-6.1,4.58-9.75,4.1c-3.53-0.47-6.68-2.86-8.01-6.1
			c-1.29-3.12-0.81-6.85,1.23-9.48c1.96-2.53,5.24-3.89,8.36-3.46c3,0.41,5.65,2.46,6.76,5.21c1.06,2.64,0.64,5.76-1.09,7.95
			c-1.65,2.09-4.39,3.2-6.97,2.82c-2.46-0.36-4.62-2.06-5.51-4.33c-0.84-2.15-0.47-4.67,0.95-6.42c1.34-1.66,3.53-2.52,5.57-2.18
			c1.93,0.31,3.6,1.66,4.26,3.44c0.62,1.66,0.31,3.58-0.8,4.9c-1.01,1.2-2.68,1.83-4.17,1.55c-1.37-0.25-2.58-1.27-3.01-2.54
			c-0.39-1.13-0.13-2.52,0.63-3.37c0.68-0.76,1.82-1.15,2.76-0.93c0.83,0.19,1.56,0.85,1.78,1.62c0.19,0.65,0,1.41-0.44,1.84
			c-0.4,0.39-0.85,0.41-1.02,0.41l-0.89-0.03l0.83-0.32c0.36-0.17,0.6-0.47,0.67-0.85c0.09-0.4-0.03-0.81-0.3-1.13
			c-0.42-0.47-1.25-0.72-2.04-0.27c-0.6,0.34-1.15,1.14-1.02,2.16c0.12,0.96,0.86,1.83,1.84,2.15c1.07,0.36,2.36,0.04,3.21-0.78
			c0.93-0.9,1.3-2.38,0.93-3.68c-0.4-1.41-1.67-2.58-3.15-2.92c-1.62-0.36-3.41,0.23-4.56,1.51c-1.23,1.37-1.62,3.42-1,5.21
			c0.65,1.91,2.39,3.38,4.43,3.76c2.15,0.4,4.48-0.46,5.93-2.18c1.52-1.82,1.96-4.46,1.11-6.74c-0.89-2.39-3.13-4.2-5.7-4.62
			c-2.69-0.44-5.56,0.68-7.31,2.85c-1.83,2.26-2.31,5.51-1.23,8.27c1.12,2.87,3.86,5.03,6.96,5.49c3.23,0.48,6.64-0.9,8.7-3.51
			c2.13-2.7,2.66-6.55,1.35-9.79c-1.35-3.36-4.58-5.85-8.23-6.36c-3.76-0.52-7.72,1.11-10.08,4.16c-2.44,3.15-3.02,7.59-1.48,11.32
			c1.58,3.84,5.31,6.68,9.49,7.23c4.3,0.57,8.8-1.33,11.47-4.82c2.74-3.59,3.37-8.63,1.61-12.85c-1.81-4.33-6.03-7.51-10.74-8.11
			c-4.84-0.61-9.88,1.54-12.86,5.47c-3.05,4.03-3.73,9.67-1.74,14.38c2.04,4.82,6.75,8.35,12,8.99c0.58,0.07,1.18,0.11,1.77,0.11
			c4.81,0,9.59-2.39,12.48-6.23c3.35-4.47,4.09-10.72,1.87-15.91c-2.27-5.3-7.48-9.17-13.26-9.86c-0.63-0.08-1.26-0.11-1.89-0.11
			c-5.29,0-10.54,2.58-13.74,6.88c-1.78,2.39-2.92,5.29-3.28,8.39c-0.36,3.04,0.06,6.1,1.2,8.84c0.02,0.06,0.04,0.1,0.06,0.15
			l0.05,0.11c2.31,4.88,6.38,8.57,11.45,10.42c2.26,0.82,4.61,1.24,6.99,1.24c2.98,0,5.88-0.65,8.61-1.92
			c3.94-1.84,7.14-4.82,9.23-8.62C173.03,44.79,172.86,44.22,172.42,43.98"/>
	</g>
</g>
<g id="Layer_2">
</g>
</svg>
